<?xml version="1.0" encoding="utf-8"?>
<!-- Generator: Adobe Illustrator 27.0.0, SVG Export Plug-In . SVG Version: 6.00 Build 0)  -->
<svg version="1.1" id="Layer_1" xmlns="http://www.w3.org/2000/svg" xmlns:xlink="http://www.w3.org/1999/xlink" x="0px" y="0px"
	 viewBox="0 0 595.28 841.89" style="enable-background:new 0 0 595.28 841.89;" xml:space="preserve">
<style type="text/css">
	.st0{fill:url(#SVGID_1_);}
	.st1{fill:url(#SVGID_00000105428463323948315640000012987894797570872759_);}
	.st2{opacity:0.4;fill:url(#SVGID_00000131368666299608778610000018159629947329332638_);}
	.st3{fill:url(#SVGID_00000109714497066284003350000001073998052533996680_);}
	.st4{fill:url(#SVGID_00000018956331535112976710000011577271841735377032_);}
	.st5{fill:url(#SVGID_00000150064837666822419430000001294306297180047269_);}
	.st6{fill:url(#SVGID_00000094585431335161001440000015426605097876234627_);}
	.st7{fill:url(#SVGID_00000163030934453641373470000000189027571863892628_);}
	.st8{fill:url(#SVGID_00000137106630904690427000000007570415826916165820_);}
	.st9{fill:url(#SVGID_00000106868701430516491650000007999526945476905138_);}
	.st10{fill:url(#SVGID_00000006699033181806445170000001051350194026611103_);}
</style>
<g>
	
		<radialGradient id="SVGID_1_" cx="117.6914" cy="403.2274" r="53.8071" gradientTransform="matrix(-1 0 0 1 421.6729 0)" gradientUnits="userSpaceOnUse">
		<stop  offset="0" style="stop-color:#FFF8C8"/>
		<stop  offset="0.1559" style="stop-color:#FEE434"/>
		<stop  offset="1" style="stop-color:#F47525"/>
	</radialGradient>
	<path class="st0" d="M269.15,421c0,15.65,12.69,28.35,28.34,28.35c15.65,0,28.35-12.69,28.35-28.35
		c0-15.65-12.69-28.34-28.35-28.34C281.84,392.65,269.15,405.34,269.15,421z"/>
	<g>
		
			<radialGradient id="SVGID_00000044147304722386304600000004553450576612549526_" cx="1345.0132" cy="-1504.8544" r="8.0769" gradientTransform="matrix(-0.8392 1.1536 -1.6186 -1.3126 -998.4272 -3118.1152)" gradientUnits="userSpaceOnUse">
			<stop  offset="0" style="stop-color:#FFFFFF"/>
			<stop  offset="1" style="stop-color:#FFFFFF;stop-opacity:0"/>
		</radialGradient>
		<path style="fill:url(#SVGID_00000044147304722386304600000004553450576612549526_);" d="M301.82,418.08
			c-7.22-5.86-10.04-14.77-6.3-19.92c3.74-5.15,12.63-4.57,19.85,1.29c7.22,5.86,10.03,14.78,6.29,19.92
			C317.92,424.51,309.04,423.93,301.82,418.08z"/>
		
			<radialGradient id="SVGID_00000150066203343184180100000002953224222247768243_" cx="-2736.8101" cy="3286.6318" r="7.7936" gradientTransform="matrix(-1.1717 -1.1007 0.222 -0.7283 -3654.7725 -182.9114)" gradientUnits="userSpaceOnUse">
			<stop  offset="0" style="stop-color:#FFFFFF"/>
			<stop  offset="1" style="stop-color:#FFFFFF;stop-opacity:0"/>
		</radialGradient>
		<path style="opacity:0.4;fill:url(#SVGID_00000150066203343184180100000002953224222247768243_);" d="M272.45,427.26
			c0.96-3.13,5.82-1.84,10.86,2.9c5.04,4.74,8.36,11.12,7.4,14.26c-0.95,3.13-5.82,1.84-10.86-2.9
			C274.81,436.78,271.49,430.39,272.45,427.26z"/>
	</g>
	
		<radialGradient id="SVGID_00000070799774065263010080000016868655765801458337_" cx="298.125" cy="377.6953" r="9.3624" gradientUnits="userSpaceOnUse">
		<stop  offset="0" style="stop-color:#FFF8C8"/>
		<stop  offset="0.1559" style="stop-color:#FEE434"/>
		<stop  offset="1" style="stop-color:#F47525"/>
	</radialGradient>
	<path style="fill:url(#SVGID_00000070799774065263010080000016868655765801458337_);" d="M300.94,384.27c0,1.9-1.54,3.44-3.44,3.44
		l0,0c-1.9,0-3.44-1.54-3.44-3.44v-4.88c0-1.9,1.54-3.44,3.44-3.44l0,0c1.9,0,3.44,1.54,3.44,3.44V384.27z"/>
	
		<radialGradient id="SVGID_00000046339612790553102760000009011415241696737449_" cx="698.4761" cy="140.4633" r="9.3627" gradientTransform="matrix(0.7071 -0.7071 0.7071 0.7071 -325.8929 784.5072)" gradientUnits="userSpaceOnUse">
		<stop  offset="0" style="stop-color:#FFF8C8"/>
		<stop  offset="0.1559" style="stop-color:#FEE434"/>
		<stop  offset="1" style="stop-color:#F47525"/>
	</radialGradient>
	<path style="fill:url(#SVGID_00000046339612790553102760000009011415241696737449_);" d="M273.96,392.6c1.34,1.34,1.34,3.52,0,4.86
		l0,0c-1.34,1.34-3.52,1.34-4.86,0l-3.45-3.45c-1.34-1.34-1.34-3.52,0-4.86l0,0c1.34-1.34,3.52-1.34,4.86,0L273.96,392.6z"/>
	
		<radialGradient id="SVGID_00000086680029058841122190000014638452688217781131_" cx="1149.2272" cy="255.6179" r="9.3623" gradientTransform="matrix(0 -1 1 0 -1.4231 1569.6016)" gradientUnits="userSpaceOnUse">
		<stop  offset="0" style="stop-color:#FFF8C8"/>
		<stop  offset="0.1559" style="stop-color:#FEE434"/>
		<stop  offset="1" style="stop-color:#F47525"/>
	</radialGradient>
	<path style="fill:url(#SVGID_00000086680029058841122190000014638452688217781131_);" d="M260.77,417.56c1.9,0,3.44,1.54,3.44,3.44
		l0,0c0,1.9-1.54,3.44-3.44,3.44h-4.88c-1.9,0-3.44-1.54-3.44-3.44l0,0c0-1.9,1.54-3.44,3.44-3.44H260.77z"/>
	
		<radialGradient id="SVGID_00000059297126410711893070000005070303230172779171_" cx="1386.6229" cy="655.9664" r="9.3628" gradientTransform="matrix(-0.7071 -0.7071 0.7071 -0.7071 783.0833 1895.4935)" gradientUnits="userSpaceOnUse">
		<stop  offset="0" style="stop-color:#FFF8C8"/>
		<stop  offset="0.1559" style="stop-color:#FEE434"/>
		<stop  offset="1" style="stop-color:#F47525"/>
	</radialGradient>
	<path style="fill:url(#SVGID_00000059297126410711893070000005070303230172779171_);" d="M269.1,444.54c1.34-1.34,3.52-1.34,4.86,0
		l0,0c1.34,1.34,1.34,3.52,0,4.86l-3.45,3.45c-1.34,1.34-3.52,1.34-4.86,0l0,0c-1.34-1.34-1.34-3.52,0-4.86L269.1,444.54z"/>
	
		<radialGradient id="SVGID_00000158014780153594821350000012333588104176658055_" cx="1271.302" cy="1106.7207" r="9.3626" gradientTransform="matrix(-1 0 0 -1 1568.1758 1571.0254)" gradientUnits="userSpaceOnUse">
		<stop  offset="0" style="stop-color:#FFF8C8"/>
		<stop  offset="0.1559" style="stop-color:#FEE434"/>
		<stop  offset="1" style="stop-color:#F47525"/>
	</radialGradient>
	<path style="fill:url(#SVGID_00000158014780153594821350000012333588104176658055_);" d="M294.06,457.73c0-1.9,1.54-3.44,3.44-3.44
		l0,0c1.9,0,3.44,1.54,3.44,3.44l0,4.88c0,1.9-1.54,3.44-3.44,3.44l0,0c-1.9,0-3.44-1.54-3.44-3.44L294.06,457.73z"/>
	
		<radialGradient id="SVGID_00000051351119664281155890000018422590662111851674_" cx="871.1176" cy="1344.1171" r="9.3629" gradientTransform="matrix(-0.7071 0.7071 -0.7071 -0.7071 1894.0717 786.5212)" gradientUnits="userSpaceOnUse">
		<stop  offset="0" style="stop-color:#FFF8C8"/>
		<stop  offset="0.1559" style="stop-color:#FEE434"/>
		<stop  offset="1" style="stop-color:#F47525"/>
	</radialGradient>
	<path style="fill:url(#SVGID_00000051351119664281155890000018422590662111851674_);" d="M321.04,449.4
		c-1.34-1.34-1.34-3.52,0-4.86l0,0c1.34-1.34,3.52-1.34,4.86,0l3.45,3.45c1.34,1.34,1.34,3.52,0,4.86l0,0
		c-1.34,1.34-3.52,1.34-4.86,0L321.04,449.4z"/>
	
		<radialGradient id="SVGID_00000145031066933948032380000014750969881379038361_" cx="420.1988" cy="1228.8003" r="9.3623" gradientTransform="matrix(0 1 -1 0 1569.6055 1.4258)" gradientUnits="userSpaceOnUse">
		<stop  offset="0" style="stop-color:#FFF8C8"/>
		<stop  offset="0.1559" style="stop-color:#FEE434"/>
		<stop  offset="1" style="stop-color:#F47525"/>
	</radialGradient>
	<path style="fill:url(#SVGID_00000145031066933948032380000014750969881379038361_);" d="M334.23,424.44
		c-1.9,0-3.44-1.54-3.44-3.44l0,0c0-1.9,1.54-3.44,3.44-3.44h4.88c1.9,0,3.44,1.54,3.44,3.44l0,0c0,1.9-1.54,3.44-3.44,3.44H334.23z
		"/>
	
		<radialGradient id="SVGID_00000067213625963269157250000010227746530861025206_" cx="182.9681" cy="828.614" r="9.3627" gradientTransform="matrix(0.7071 0.7071 -0.7071 0.7071 785.0993 -324.47)" gradientUnits="userSpaceOnUse">
		<stop  offset="0" style="stop-color:#FFF8C8"/>
		<stop  offset="0.1559" style="stop-color:#FEE434"/>
		<stop  offset="1" style="stop-color:#F47525"/>
	</radialGradient>
	<path style="fill:url(#SVGID_00000067213625963269157250000010227746530861025206_);" d="M325.9,397.46
		c-1.34,1.34-3.52,1.34-4.86,0l0,0c-1.34-1.34-1.34-3.52,0-4.86l3.45-3.45c1.34-1.34,3.52-1.34,4.86,0l0,0
		c1.34,1.34,1.34,3.52,0,4.86L325.9,397.46z"/>
</g>
</svg>
